<svg width="14" height="14" viewBox="0 0 14 14" fill="none" xmlns="http://www.w3.org/2000/svg">
<path d="M11.7784 4.21553V7.70405C11.7784 9.0162 11.7577 10.329 11.7842 11.6411C11.8074 12.7661 10.9451 13.5129 9.92728 13.4916C7.78834 13.449 5.64747 13.4825 3.50724 13.4819C2.37129 13.4819 1.68004 12.7932 1.6781 11.6528C1.67423 9.3402 1.6781 7.02765 1.6781 4.71509V4.21553C1.5445 4.21553 1.43155 4.21876 1.31925 4.21553C0.550547 4.18713 0.00322712 3.66434 0 2.95695C0 2.22439 0.544093 1.69966 1.33345 1.69321C2.15056 1.68676 2.96831 1.69321 3.78606 1.69321H4.183C4.19978 1.46667 4.20623 1.27498 4.22947 1.08522C4.30111 0.486912 4.77292 0.0280147 5.37187 0.0151062C6.25352 -0.00339595 7.1356 -0.00490198 8.01811 0.0105882C8.72808 0.0234967 9.21473 0.526928 9.25087 1.24206C9.25797 1.37889 9.25087 1.51701 9.25087 1.69386H10.0176C10.7276 1.69386 11.4376 1.68998 12.1475 1.69386C12.8885 1.69773 13.4384 2.2102 13.4597 2.92016C13.481 3.63013 12.9227 4.18713 12.1824 4.21488C12.0623 4.2194 11.9449 4.21553 11.7784 4.21553ZM2.52232 4.23167C2.51845 4.32525 2.51393 4.37753 2.51393 4.43046C2.51393 6.84004 2.51393 9.24963 2.51393 11.6592C2.51393 12.3137 2.85471 12.6564 3.51047 12.657C5.66188 12.6596 7.8133 12.6585 9.96471 12.6538C10.6101 12.6538 10.9458 12.3066 10.9464 11.6482C10.9464 9.49683 10.9464 7.34541 10.9464 5.19399C10.9464 4.87515 10.9464 4.55631 10.9464 4.23167H2.52232ZM6.76082 2.5271C5.03969 2.5271 3.31856 2.5271 1.59743 2.5271C1.45801 2.5271 1.29279 2.4916 1.18565 2.55292C1.04559 2.63295 0.880359 2.78204 0.858415 2.9221C0.839698 3.04279 0.981691 3.22222 1.09916 3.31968C1.18306 3.38874 1.34377 3.37841 1.47028 3.37841C4.9986 3.37841 8.52692 3.37841 12.0552 3.37841C12.4076 3.37841 12.6239 3.21319 12.6245 2.94921C12.6252 2.68523 12.4212 2.52968 12.054 2.52968L6.76082 2.5271ZM8.37955 1.67966C8.49185 1.00712 8.34728 0.830278 7.72573 0.832214C7.04997 0.832214 6.37422 0.832214 5.69846 0.832214C5.10725 0.835441 4.92395 1.09038 5.09305 1.67837L8.37955 1.67966Z" fill="#585858"/>
<path d="M7.15136 8.83836C7.15136 9.63353 7.15136 10.4285 7.15136 11.2232C7.15136 11.6008 7.01259 11.788 6.73313 11.7912C6.45366 11.7944 6.30908 11.6092 6.30908 11.2322C6.30908 9.63159 6.30908 8.03094 6.30908 6.43028C6.30908 6.11854 6.46592 5.91394 6.70795 5.90297C6.96612 5.88942 7.14749 6.0966 7.14942 6.41931C7.15394 7.2248 7.14942 8.03287 7.14942 8.83643L7.15136 8.83836Z" fill="#585858"/>
<path d="M5.03817 8.85193C5.03817 9.67808 5.05301 10.5055 5.02526 11.331C5.0201 11.4833 4.87165 11.6899 4.73417 11.7576C4.63349 11.8073 4.42437 11.6931 4.29658 11.6079C4.23203 11.5634 4.21525 11.4143 4.21525 11.3123C4.20923 9.66947 4.20772 8.02708 4.21073 6.38512C4.21073 6.09339 4.38306 5.90493 4.61929 5.90234C4.87229 5.90234 5.03301 6.08177 5.03494 6.40448C5.04075 7.2203 5.03494 8.03612 5.03494 8.85193H5.03817Z" fill="#585858"/>
<path d="M8.42087 8.81911C8.42087 8.0246 8.42087 7.23072 8.42087 6.43621C8.42087 6.08768 8.57125 5.89986 8.83652 5.90438C9.08953 5.90889 9.24378 6.08445 9.24507 6.41749C9.25067 8.04826 9.25067 9.67947 9.24507 11.3111C9.24507 11.5764 9.13793 11.7739 8.83846 11.7881C8.57319 11.801 8.42216 11.6274 8.42022 11.2982C8.4157 10.4714 8.42022 9.64526 8.42022 8.81911H8.42087Z" fill="#585858"/>
</svg>
