<svg width="12" height="12" viewBox="0 0 12 12" fill="none" xmlns="http://www.w3.org/2000/svg">
<path fillRule="evenodd" clipRule="evenodd" d="M1.02958 1.02958C1.7744 0.284763 2.88895 0 4.32558 0H5.44186C5.67305 0 5.86047 0.187416 5.86047 0.418605C5.86047 0.649794 5.67305 0.837209 5.44186 0.837209H4.32558C2.97152 0.837209 2.13257 1.11059 1.62158 1.62158C1.11059 2.13257 0.837209 2.97152 0.837209 4.32558V7.67442C0.837209 9.02848 1.11059 9.86743 1.62158 10.3784C2.13257 10.8894 2.97152 11.1628 4.32558 11.1628H7.67442C9.02848 11.1628 9.86743 10.8894 10.3784 10.3784C10.8894 9.86743 11.1628 9.02848 11.1628 7.67442V6.55814C11.1628 6.32695 11.3502 6.13954 11.5814 6.13954C11.8126 6.13954 12 6.32695 12 6.55814V7.67442C12 9.11105 11.7152 10.2256 10.9704 10.9704C10.2256 11.7152 9.11105 12 7.67442 12H4.32558C2.88895 12 1.7744 11.7152 1.02958 10.9704C0.284763 10.2256 0 9.11105 0 7.67442V4.32558C0 2.88895 0.284763 1.7744 1.02958 1.02958Z" fill="#585858"/>
<path fillRule="evenodd" clipRule="evenodd" d="M9.23784 0.00860348C9.87776 -0.0542192 10.5122 0.226845 11.1424 0.857125C11.7726 1.4874 12.0536 2.12193 11.9908 2.76194C11.9302 3.37933 11.5579 3.89101 11.1424 4.30658L6.6082 8.84137C6.47876 8.96665 6.30957 9.07611 6.14632 9.15817C5.98403 9.23975 5.79288 9.31168 5.61064 9.33772L3.87838 9.58522C3.45185 9.64392 3.04374 9.52745 2.75743 9.24226C2.47049 8.95645 2.35313 8.54815 2.41586 8.11911C2.4159 8.11882 2.41594 8.11853 2.41599 8.11824L2.6627 6.39099C2.66274 6.39074 2.66277 6.39048 2.66281 6.39023C2.6887 6.20556 2.76027 6.01301 2.84243 5.84953C2.92476 5.68571 3.03561 5.5155 3.16418 5.38692L7.69339 0.857125C8.10891 0.441551 8.62052 0.0692062 9.23784 0.00860348ZM9.32206 0.866749C9.00249 0.898122 8.6692 1.10062 8.30302 1.46684L3.77382 5.99663C3.72995 6.0405 3.66837 6.1261 3.61276 6.23676C3.55708 6.34755 3.52528 6.44787 3.51659 6.51015L3.51639 6.51154L3.26924 8.24183L3.269 8.24348C3.24006 8.4407 3.29803 8.56378 3.36583 8.63131C3.43431 8.69953 3.56043 8.75831 3.75981 8.73113C3.76015 8.73108 3.7605 8.73104 3.76084 8.73099L5.48871 8.48411C5.54787 8.47566 5.64698 8.44412 5.75914 8.38774C5.86878 8.33263 5.95731 8.27066 6.0065 8.22371L10.5328 3.69687C10.8989 3.33065 11.1014 2.99731 11.1328 2.6777C11.1619 2.38071 11.0521 1.98625 10.5328 1.46684C10.0134 0.947428 9.61902 0.837596 9.32206 0.866749Z" fill="#585858"/>
<path fillRule="evenodd" clipRule="evenodd" d="M7.5054 1.21502C7.72827 1.15226 7.95982 1.28205 8.02258 1.50491C8.18847 2.09399 8.50284 2.6306 8.93558 3.06334C9.36833 3.49608 9.90494 3.81046 10.494 3.97635C10.7169 4.03911 10.8467 4.27066 10.7839 4.49352C10.7211 4.71639 10.4896 4.84618 10.2667 4.78342C9.53946 4.57861 8.87696 4.19048 8.3427 3.65622C7.80844 3.12196 7.42032 2.45947 7.21551 1.7322C7.15275 1.50933 7.28254 1.27778 7.5054 1.21502Z" fill="#585858"/>
</svg>
