<svg width="17" height="19" viewBox="0 0 17 19" fill="none" xmlns="http://www.w3.org/2000/svg">
<path d="M15.9245 12.5519C15.8542 12.4708 15.7852 12.3896 15.7175 12.3113C14.7863 11.2314 14.223 10.5797 14.223 7.52279C14.223 5.94015 13.8281 4.64158 13.0498 3.66765C12.4758 2.94816 11.7 2.40236 10.6775 1.99899C10.6643 1.99197 10.6525 1.98276 10.6427 1.9718C10.2749 0.790911 9.26846 0 8.13331 0C6.99816 0 5.9921 0.790911 5.6243 1.97058C5.61449 1.98114 5.6029 1.99006 5.59002 1.99696C3.20375 2.93883 2.04405 4.74587 2.04405 7.52157C2.04405 10.5797 1.48155 11.2314 0.549563 12.3101C0.481844 12.3884 0.412854 12.4679 0.342595 12.5507C0.161107 12.7605 0.0461191 13.0159 0.0112402 13.2864C-0.0236386 13.557 0.0230514 13.8314 0.145785 14.0773C0.406929 14.6049 0.963499 14.9324 1.59879 14.9324H14.6725C15.3048 14.9324 15.8576 14.6053 16.1196 14.0802C16.2428 13.8342 16.29 13.5595 16.2554 13.2887C16.2208 13.0178 16.106 12.7621 15.9245 12.5519ZM8.13331 18.18C8.74492 18.1795 9.34499 18.0204 9.86988 17.7194C10.3948 17.4184 10.8249 16.9868 11.1147 16.4704C11.1283 16.4456 11.1351 16.4179 11.1342 16.3899C11.1334 16.3619 11.1251 16.3346 11.11 16.3106C11.0949 16.2867 11.0736 16.2668 11.0482 16.2531C11.0228 16.2393 10.994 16.2321 10.9648 16.2321H5.30263C5.2734 16.232 5.24463 16.2392 5.21914 16.2529C5.19365 16.2667 5.1723 16.2865 5.15717 16.3105C5.14204 16.3344 5.13365 16.3618 5.13281 16.3898C5.13197 16.4178 5.13871 16.4456 5.15238 16.4704C5.44211 16.9867 5.87218 17.4183 6.39699 17.7192C6.92179 18.0202 7.52178 18.1795 8.13331 18.18Z" fill="#585858"/>
</svg>
