<svg width="19" height="18" viewBox="0 0 19 18" fill="none" xmlns="http://www.w3.org/2000/svg">
<path d="M0.00803363 9.74762C0.00803363 7.7275 0.0170719 5.70738 0 3.68521C0 3.23104 0.136575 2.96594 0.560359 2.78407C2.51258 1.93842 4.45978 1.07221 6.39091 0.167986C6.8408 -0.0375197 7.25555 -0.0200516 7.69641 0.0405725L16.7987 1.26128C17.3119 1.33115 17.824 1.41849 18.3402 1.46678C18.7349 1.50172 18.9046 1.69284 18.9076 2.08946C18.9126 3.04814 18.9337 4.00683 18.9397 4.96654C18.9588 8.03165 18.9669 11.0957 19 14.1598C19 14.6078 18.8735 14.8791 18.4868 15.1072C16.9956 15.9888 15.5324 16.9198 14.0361 17.7921C13.7319 17.9564 13.3873 18.0257 13.0449 17.9915C9.92077 17.6596 6.79662 17.2928 3.67146 16.9403C2.7074 16.8314 1.74434 16.7153 0.780285 16.6053C0.0552326 16.5231 0.0140593 16.4841 0.0130551 15.7114C0.0130551 13.7248 0.0130551 11.7383 0.0130551 9.75173L0.00803363 9.74762ZM12.7276 16.6526C12.7545 16.5607 12.7733 16.4664 12.7838 16.3711C12.7838 12.7932 12.7865 9.21536 12.7919 5.63751C12.7919 5.34878 12.6844 5.26041 12.4153 5.23575C11.6822 5.1669 10.9541 5.05799 10.222 4.98092C9.34535 4.88947 8.46665 4.81446 7.54577 4.72815C7.48251 6.53352 7.42125 8.28442 7.35597 10.1227C6.76348 9.71166 6.2453 9.36949 5.74921 9.00164C5.51723 8.83107 5.33647 8.80332 5.07939 8.9667C4.58832 9.2801 4.07516 9.54725 3.47865 9.8812C3.60518 7.94739 3.72468 6.11223 3.8482 4.2185L1.21612 3.84962V15.4309L12.7276 16.6526ZM14.1415 16.5098C15.3255 15.8254 16.4312 15.1606 17.5619 14.5441C17.9154 14.352 18.0108 14.1331 18.0068 13.7416C17.9737 10.2665 17.9596 6.79245 17.9385 3.31736C17.9385 3.17658 17.9154 3.03479 17.8974 2.82209C16.7214 3.54136 15.6258 4.23083 14.5151 4.8905C14.2189 5.06621 14.1004 5.26041 14.1014 5.61799C14.1144 9.05815 14.1084 12.5024 14.1104 15.9385C14.1104 16.1029 14.1275 16.2652 14.1415 16.5118V16.5098ZM8.39434 3.6924C8.47124 3.73382 8.55155 3.7682 8.63436 3.79516C10.208 4.00066 11.7816 4.21233 13.3542 4.41167C13.4843 4.43405 13.618 4.41466 13.7368 4.35619C14.8415 3.66877 15.9461 2.96697 17.1673 2.19838C15.7704 2.01034 14.5021 1.83566 13.2337 1.6692C12.8571 1.62194 12.4032 1.475 12.106 1.62502C10.8668 2.24667 9.67474 2.96594 8.39434 3.6924ZM2.36897 2.86216L2.37801 2.98547C3.05085 3.06869 3.72267 3.16425 4.39852 3.22591C4.54815 3.23926 4.72088 3.15295 4.86147 3.0728C5.56443 2.67104 6.25433 2.259 6.94725 1.84594C7.35597 1.60139 7.76068 1.34861 8.16739 1.09995L8.14228 0.97254C7.74059 0.943769 7.28066 0.775254 6.93721 0.90986C5.39773 1.51302 3.88938 2.20352 2.36998 2.86319L2.36897 2.86216Z" fill="#2F3039"/>
</svg>
